<?xml version="1.0" encoding="utf-8"?>
<!-- Generator: Adobe Illustrator 25.0.0, SVG Export Plug-In . SVG Version: 6.00 Build 0)  -->
<svg version="1.1" id="图层_1" xmlns="http://www.w3.org/2000/svg" xmlns:xlink="http://www.w3.org/1999/xlink" x="0px" y="0px"
	 viewBox="0 0 1024 1024" style="enable-background:new 0 0 1024 1024;" xml:space="preserve">
<style type="text/css">
	.st0{fill:#FEC3E4;}
	.st1{fill:none;}
	.st2{fill:#1A936F;}
</style>
<g>
	<path class="st0" d="M511.99,277.56L511.99,277.56c173.24,0,322.15,122.85,355.07,292.94l51.54,266.3
		c8.95,46.22-21.27,90.95-67.5,99.9c-5.34,1.03-10.76,1.55-16.2,1.55H189.08c-47.08,0-85.25-38.17-85.25-85.25
		c0-5.44,0.52-10.86,1.55-16.2l51.54-266.3C189.84,400.42,338.75,277.56,511.99,277.56z M223.58,559.76l-52.69,254.66
		c-1.18,5.68-1.77,11.47-1.77,17.27c0,47.08,38.17,85.25,85.25,85.25h579.17c5.8,0,11.59-0.59,17.27-1.77
		c46.11-9.54,75.75-54.65,66.21-100.75l-52.69-254.66C832.91,407.83,699.1,298.88,543.96,298.88l0,0
		C388.82,298.88,255.01,407.83,223.58,559.76z"/>
	<path class="st1" d="M626.93,273.87l61.3-153.25l-83.71,28.02c-5.35,1.79-11.2,1.39-16.25-1.12l-76.23-37.89l-75.34,37.85
		c-5.06,2.54-10.92,2.96-16.29,1.18L335.7,120.5l61.35,153.37c36.43-11.46,75.08-17.61,114.94-17.61S590.5,262.4,626.93,273.87z"/>
	<path class="st2" d="M335.7,120.5l84.71,28.15c5.37,1.78,11.23,1.36,16.29-1.18l75.34-37.85l76.23,37.89
		c5.05,2.51,10.9,2.92,16.25,1.12l83.71-28.02l-61.3,153.25c13.62,4.29,26.94,9.32,39.89,15.05l78.08-195.2
		c6.74-16.86-9.33-33.89-26.55-28.13l-119,39.83l-77.88-38.7c-6-2.98-13.06-2.97-19.05,0.04l-76.96,38.66L305.59,65.57
		c-17.21-5.72-33.24,11.3-26.51,28.14l78.08,195.2c12.95-5.73,26.27-10.76,39.89-15.05L335.7,120.5z"/>
	<path class="st2" d="M939.52,832.75l-51.54-266.3c-24.45-126.34-109.34-228.06-221.16-277.54l-7.17,17.92
		c-1.22,3.06-3.14,5.79-5.6,7.99l-11.35,10.12c102.77,42.79,181.2,134.75,203.43,249.6l51.54,266.3
		c6.71,34.67-15.95,68.21-50.62,74.92c-4,0.77-8.07,1.16-12.15,1.16H189.08c-35.31,0-63.94-28.63-63.94-63.94
		c0-4.08,0.39-8.15,1.16-12.15l51.54-266.3c22.23-114.85,100.67-206.82,203.43-249.6l-11.35-10.12c-2.46-2.19-4.38-4.93-5.6-7.99
		l-7.17-17.92C245.34,338.39,160.45,440.11,136,566.45l-51.54,266.3c-1.29,6.67-1.94,13.45-1.94,20.25
		c0,58.85,47.71,106.56,106.56,106.56H834.9c6.8,0,13.58-0.65,20.25-1.94C912.93,946.43,950.71,890.53,939.52,832.75z"/>
	<path class="st2" d="M596.09,309.41l25.85-23.06l4.99-12.49c-36.43-11.46-75.08-17.61-114.94-17.61s-78.51,6.15-114.94,17.61
		l4.99,12.48l25.85,23.06c26.99-6.88,55.18-10.53,84.1-10.53C540.91,298.88,569.1,302.53,596.09,309.41z"/>
	<path class="st2" d="M621.94,286.35l-25.85,23.06c15.99,4.07,31.57,9.27,46.61,15.54l11.35-10.12c2.46-2.19,4.38-4.93,5.6-7.99
		l7.17-17.92c-12.95-5.73-26.27-10.76-39.89-15.05L621.94,286.35z"/>
	<path class="st2" d="M369.93,314.82l11.35,10.12c15.05-6.27,30.62-11.46,46.62-15.54l-25.85-23.06l-4.99-12.48
		c-13.62,4.29-26.94,9.32-39.89,15.05l7.17,17.92C365.55,309.9,367.47,312.63,369.93,314.82z"/>
	<path id="Shape_188_" class="st0" d="M575.93,575.94c0-11.77-9.54-21.31-21.31-21.31h-74.59c-17.66,0-31.97,14.31-31.97,31.97
		c0,17.66,14.31,31.97,31.97,31.97h63.94c41.2,0,74.59,33.4,74.59,74.59c0,41.2-33.4,74.59-74.59,74.59h-74.59
		c-35.31,0-63.94-28.63-63.94-63.94c0-11.77,9.54-21.31,21.31-21.31c11.77,0,21.31,9.54,21.31,21.31s9.54,21.31,21.31,21.31h74.59
		c17.66,0,31.97-14.31,31.97-31.97c0-17.66-14.31-31.97-31.97-31.97h-63.94c-41.2,0-74.59-33.4-74.59-74.59S438.83,512,480.02,512
		h74.59c35.31,0,63.94,28.63,63.94,63.94c0,11.77-9.54,21.31-21.31,21.31S575.93,587.71,575.93,575.94z"/>
	<path id="Shape_187_" class="st0" d="M533.3,533.31v-42.62c0-11.77-9.54-21.31-21.31-21.31c-11.77,0-21.31,9.54-21.31,21.31v42.62
		c0,11.77,9.54,21.31,21.31,21.31C523.76,554.62,533.3,545.08,533.3,533.31z"/>
	<path id="Shape_186_" class="st0" d="M533.3,789.06v-42.62c0-11.77-9.54-21.31-21.31-21.31c-11.77,0-21.31,9.54-21.31,21.31v42.62
		c0,11.77,9.54,21.31,21.31,21.31C523.76,810.37,533.3,800.83,533.3,789.06z"/>
</g>
</svg>
