<?xml version="1.0" encoding="utf-8"?>
<!-- Generator: Adobe Illustrator 25.0.0, SVG Export Plug-In . SVG Version: 6.00 Build 0)  -->
<svg version="1.1" id="图层_1" xmlns="http://www.w3.org/2000/svg" xmlns:xlink="http://www.w3.org/1999/xlink" x="0px" y="0px"
	 viewBox="0 0 1024 1024" style="enable-background:new 0 0 1024 1024;" xml:space="preserve">
<style type="text/css">
	.st0{fill:#1A936F;}
	.st1{fill:#FEC3E4;}
</style>
<g>
	<path class="st0" d="M64.45,512.01C64.45,264.83,264.83,64.46,512,64.46s447.55,200.37,447.55,447.55S759.17,959.56,512,959.56
		S64.45,759.18,64.45,512.01z M916.93,512.01c0-223.63-181.29-404.93-404.93-404.93S107.07,288.37,107.07,512.01
		S288.37,916.93,512,916.93S916.93,735.64,916.93,512.01z"/>
	<path class="st0" d="M77.66,622.46l-4.24-20.86c-5.95-29.28-8.97-59.25-8.97-89.59C64.45,264.83,264.83,64.46,512,64.46l0.24,0
		c0.23,0,0.23,0,0.45,0l21.33-0.02v465.86L77.66,622.46z M491.4,495.43V107.6c-214.06,10.73-384.32,187.69-384.32,404.41
		c0,20.28,1.49,40.36,4.43,60.13L491.4,495.43z"/>
	<path id="Shape_289_" class="st0" d="M509.98,64.46l2.5,0c246.97,0.26,447.06,200.56,447.06,447.55
		c0,98.37-31.84,191.96-89.77,268.92l-12.81,17.02L491.09,522.65V68.94L509.98,64.46z"/>
	<path id="Shape_288_" class="st1" d="M533.71,501.38L848.1,737.93c44.55-66.12,68.83-144.16,68.83-225.92
		c0-216.33-169.66-393.07-383.22-404.35V501.38z"/>
</g>
</svg>
