<?xml version="1.0" encoding="utf-8"?>
<!-- Generator: Adobe Illustrator 25.0.0, SVG Export Plug-In . SVG Version: 6.00 Build 0)  -->
<svg version="1.1" id="图层_1" xmlns="http://www.w3.org/2000/svg" xmlns:xlink="http://www.w3.org/1999/xlink" x="0px" y="0px"
	 viewBox="0 0 1024 1024" style="enable-background:new 0 0 1024 1024;" xml:space="preserve">
<style type="text/css">
	.st0{fill:#1A936F;}
	.st1{fill:#FEC3E4;}
</style>
<g>
	<path class="st0" d="M63.97,512c0-247.18,200.38-447.56,447.56-447.56S959.09,264.82,959.09,512S758.71,959.56,511.53,959.56
		S63.97,759.18,63.97,512z M916.47,512c0-223.64-181.29-404.93-404.93-404.93S106.6,288.36,106.6,512s181.29,404.93,404.93,404.93
		S916.47,735.64,916.47,512z"/>
	<path class="st0" d="M680.48,114.69c6.19-7.39,16.57-9.7,25.31-5.65C809.32,157.08,889.56,246.73,932,358.05
		c6.33,16.61-9.25,33.21-26.23,27.95c-20.41-6.33-36.66-14.99-66.44-33.5c-18.23-11.33-22.53-13.94-30.55-18.32
		c-36.72-20.07-59.68-20.68-87.81,3.11c-50.01,42.29-87.71,51.19-100.27,9.18c-5.99-20.05-2.38-44.63,10.2-98.94
		c0.62-2.68,0.62-2.68,1.24-5.35c6.93-29.75,9.05-39.43,11.02-51.58C647.54,163.65,660.68,138.34,680.48,114.69z M685.23,197.43
		c-2.19,13.51-4.4,23.55-11.58,54.41c-0.62,2.65-0.62,2.65-1.23,5.3c-8.49,36.64-12.3,58.9-11.79,70.86
		c7.45-3.57,18.56-11.21,32.81-23.27c43.51-36.79,85.05-35.69,135.77-7.97c9.01,4.92,13.58,7.7,32.61,19.52
		c2.04,1.27,4.01,2.49,5.91,3.65c-38.52-71.09-95.35-128.61-164.58-164.71C693.65,169.21,687.52,183.34,685.23,197.43z"/>
	<path class="st0" d="M448.76,69.06c12.68-1.81,24.08,7.9,24.32,20.71c0.43,23.57-4.53,40.38-18.59,72.59
		c-18.73,42.93-13.8,66.75,13.96,99.48c6.81,8.03,37.29,40.22,44.32,48.18c9.22,10.45,17.25,20.38,24.65,30.75
		c33.9,47.48,14.04,95.46-37.31,115.75c-46.06,18.2-104.49,9.96-143.21-24.79c-57.81-51.88-89.82-30.48-71.24,63.63
		c13.49,68.36-9.88,108.16-62.81,101.14c-36.86-4.89-87.15-34.46-142.05-80.71c-3.61-3.04-7.1-6.22-10.47-9.55
		c-4.16-4.11-6.46-9.75-6.34-15.6C68.28,276.57,232.28,99.92,448.76,69.06z M106.9,482.04c0.45,0.39,0.9,0.77,1.35,1.15
		c49.14,41.39,93.57,67.52,120.19,71.06c18.29,2.43,23.96-7.22,15.39-50.63c-26.12-132.33,51.61-184.3,141.53-103.61
		c26.21,23.52,67.51,29.35,99.08,16.87c27.42-10.84,34.68-28.38,18.28-51.34c-6.48-9.07-13.6-17.89-21.91-27.3
		c-6.25-7.07-37.13-39.69-44.87-48.82c-37.71-44.48-46.18-85.3-20.52-144.1c5.31-12.16,8.95-21.3,11.31-29.1
		C247.75,154.03,114.93,302.79,106.9,482.04z"/>
	<path id="Shape_56_" class="st0" d="M489.02,958.84l-22.27-1.26l2.26-22.19c4.49-43.99,25.43-72.81,61.91-81.22
		c56.26-12.96,75.9-36.75,60-76.87c-14.45-36.45-18.07-73.16-6.38-97.82c16.32-34.45,54.28-38.37,101.73-13.26
		c94.16,49.83,92.86,49.42,111.86,29.68c8.18-8.5,16.9-21.98,26.34-41.31c8.03-16.43,29.96-66.99,32.49-72.39
		c21.34-45.51,42.33-67.36,79.19-70.16l23.86-1.81l-0.95,23.91c-9.45,237.23-205.53,425.4-444.54,425.4
		C506,959.56,497.49,959.32,489.02,958.84z"/>
	<path id="Shape_55_" class="st1" d="M908.22,569.58c-5.65,7.09-11.3,17.06-17.71,30.74c-2.12,4.51-24.23,55.51-32.79,73.01
		c-11.23,22.98-22.23,40-33.93,52.15c-22.91,23.8-48.92,29.37-79.67,19.68c-11.34-3.57-23.14-8.98-39.23-17.53
		c-5.38-2.86-34.54-18.93-43.6-23.72c-28.66-15.17-39.54-14.05-43.27-6.16c-5.56,11.73-3.04,37.33,7.48,63.86
		c27.36,69-11.47,116.01-90.06,134.11c-11.23,2.59-19.14,9.14-24,21.21C714.06,915.96,882.11,765.49,908.22,569.58z"/>
</g>
</svg>
