<?xml version="1.0" encoding="utf-8"?>
<!-- Generator: Adobe Illustrator 25.0.0, SVG Export Plug-In . SVG Version: 6.00 Build 0)  -->
<svg version="1.1" id="图层_1" xmlns="http://www.w3.org/2000/svg" xmlns:xlink="http://www.w3.org/1999/xlink" x="0px" y="0px"
	 viewBox="0 0 1024 1024" style="enable-background:new 0 0 1024 1024;" xml:space="preserve">
<style type="text/css">
	.st0{fill:#1A936F;}
	.st1{fill:#FEC3E4;}
	.st2{fill:#154E84;}
</style>
<g>
	<path id="Shape_358_" class="st0" d="M958.88,874.44V917c0,23.51-19.05,42.56-42.56,42.56H107.68c-23.51,0-42.56-19.05-42.56-42.56
		v-42.56c0-23.51,19.05-42.56,42.56-42.56h808.64C939.83,831.88,958.88,850.93,958.88,874.44z"/>
	<polygon id="Shape_357_" class="st1" points="916.32,874.44 107.68,874.44 107.68,917 916.32,917 	"/>
	<polygon class="st0" points="192.8,831.88 192.8,406.27 256.64,406.27 299.2,406.27 299.2,363.71 150.24,363.71 150.24,874.44 
		299.2,874.44 299.2,831.88 256.64,831.88 	"/>
	<rect x="256.64" y="406.27" class="st0" width="42.56" height="425.6"/>
	<polygon class="st0" points="724.8,363.71 724.8,406.27 767.36,406.27 831.2,406.27 831.2,831.88 767.36,831.88 724.8,831.88 
		724.8,874.44 873.76,874.44 873.76,363.71 	"/>
	<rect x="724.8" y="406.27" class="st0" width="42.56" height="425.6"/>
	<path id="Shape_350_" class="st1" d="M575.84,555.24c0-11.75-9.53-21.28-21.28-21.28h-74.48c-17.63,0-31.92,14.29-31.92,31.92
		c0,17.63,14.29,31.92,31.92,31.92h63.84c41.13,0,74.48,33.35,74.48,74.48c0,41.13-33.35,74.48-74.48,74.48h-74.48
		c-35.26,0-63.84-28.58-63.84-63.84c0-11.75,9.53-21.28,21.28-21.28c11.75,0,21.28,9.53,21.28,21.28s9.53,21.28,21.28,21.28h74.48
		c17.63,0,31.92-14.29,31.92-31.92c0-17.63-14.29-31.92-31.92-31.92h-63.84c-41.13,0-74.48-33.35-74.48-74.48
		c0-41.13,33.35-74.48,74.48-74.48h74.48c35.26,0,63.84,28.58,63.84,63.84c0,11.75-9.53,21.28-21.28,21.28
		S575.84,566.99,575.84,555.24z"/>
	<path id="Shape_349_" class="st1" d="M533.28,512.68v-42.56c0-11.75-9.53-21.28-21.28-21.28s-21.28,9.53-21.28,21.28v42.56
		c0,11.75,9.53,21.28,21.28,21.28S533.28,524.43,533.28,512.68z"/>
	<path id="Shape_348_" class="st1" d="M533.28,768.04v-42.56c0-11.75-9.53-21.28-21.28-21.28s-21.28,9.53-21.28,21.28v42.56
		c0,11.75,9.53,21.28,21.28,21.28S533.28,779.79,533.28,768.04z"/>
	<path id="Shape_347_" class="st2" d="M503.22,66.34c5.58-2.53,11.98-2.53,17.57,0l425.6,192.87c7.61,3.45,12.5,11.03,12.5,19.38
		v105.05c0,11.75-9.53,21.28-21.28,21.28H86.4c-11.75,0-21.28-9.53-21.28-21.28V278.59c0-8.35,4.89-15.93,12.5-19.38L503.22,66.34z
		 M512,109.09L107.68,292.31v70.05h808.64v-70.05L512,109.09z"/>
	<path id="Shape_346_" class="st2" d="M503.22,66.34c5.58-2.53,11.98-2.53,17.57,0l425.6,192.87c7.61,3.45,12.5,11.03,12.5,19.38
		v105.05c0,11.75-9.53,21.28-21.28,21.28H86.4c-11.75,0-21.28-9.53-21.28-21.28V278.59c0-8.35,4.89-15.93,12.5-19.38L503.22,66.34z
		 M512,109.09L107.68,292.31v70.05h808.64v-70.05L512,109.09z"/>
	<polygon id="Shape_344_" class="st1" points="512,149.56 937.6,342.43 937.6,383.64 86.4,383.64 86.4,342.43 	"/>
	<path id="Shape_343_" class="st0" d="M503.22,66.34c5.58-2.53,11.98-2.53,17.57,0l425.6,192.87c7.61,3.45,12.5,11.03,12.5,19.38
		v105.05c0,11.75-9.53,21.28-21.28,21.28H86.4c-11.75,0-21.28-9.53-21.28-21.28V278.59c0-8.35,4.89-15.93,12.5-19.38L503.22,66.34z
		 M512,109.09L107.68,292.31v70.05h808.64v-70.05L512,109.09z"/>
</g>
</svg>
