<?xml version="1.0" encoding="utf-8"?>
<!-- Generator: Adobe Illustrator 25.0.0, SVG Export Plug-In . SVG Version: 6.00 Build 0)  -->
<svg version="1.1" id="图层_1" xmlns="http://www.w3.org/2000/svg" xmlns:xlink="http://www.w3.org/1999/xlink" x="0px" y="0px"
	 viewBox="0 0 1024 1024" style="enable-background:new 0 0 1024 1024;" xml:space="preserve">
<style type="text/css">
	.st0{fill:#1A936F;}
	.st1{fill-rule:evenodd;clip-rule:evenodd;fill:#1A936F;}
	.st2{fill:#FEC3E4;}
</style>
<g>
	<g>
		<g>
			<g>
				<path class="st0" d="M286.22,484.03c-8.8,0-15.93-7.12-15.93-15.93V364.52c0-11.18,9.06-20.25,20.25-20.25
					c12.55,0,24.31,6.54,30.96,17.21l21.15,34c8.83,14.28,17.42,31.06,24.36,46.44c0.27,0.55,0.27,1.47,0.9,1.47
					c0.69,0,0.11-1.03,0.03-1.73c-1.89-17.91-2.55-36.26-2.55-56.74v-24.72c0-8.8,7.13-15.94,15.93-15.94
					c8.81,0,15.93,7.13,15.93,15.94v105.62c0,10.07-8.13,18.2-18.2,18.2c-11.26,0-21.78-5.91-27.64-15.54l-23.31-38.36
					c-8.84-14.48-18.71-31.84-25.94-47.82c-0.29-0.63-0.46-1.54-1.16-1.54c-0.7,0-0.39,1.05-0.35,1.74
					c1.07,18.16,1.49,37.33,1.49,59.44v26.16C302.14,476.91,295.01,484.03,286.22,484.03z"/>
			</g>
		</g>
		<g>
			<g>
				<path class="st1" d="M286.22,484.03c-8.8,0-15.93-7.12-15.93-15.93V364.52c0-11.18,9.06-20.25,20.25-20.25
					c12.55,0,24.31,6.54,30.96,17.21l21.15,34c8.83,14.28,17.42,31.06,24.36,46.44c0.27,0.55,0.27,1.47,0.9,1.47
					c0.69,0,0.11-1.03,0.03-1.73c-1.89-17.91-2.55-36.26-2.55-56.74v-24.72c0-8.8,7.13-15.94,15.93-15.94
					c8.81,0,15.93,7.13,15.93,15.94v105.62c0,10.07-8.13,18.2-18.2,18.2c-11.26,0-21.78-5.91-27.64-15.54l-23.31-38.36
					c-8.84-14.48-18.71-31.84-25.94-47.82c-0.29-0.63-0.46-1.54-1.16-1.54c-0.7,0-0.39,1.05-0.35,1.74
					c1.07,18.16,1.49,37.33,1.49,59.44v26.16C302.14,476.91,295.01,484.03,286.22,484.03z"/>
			</g>
		</g>
	</g>
	<g>
		<g>
			<g>
				<path class="st0" d="M518.48,412.08c0,7.11-5.75,12.87-12.86,12.87h-30.62c-7.15,0-12.95,5.78-12.95,12.96v7.24
					c0,7.16,5.8,12.97,12.95,12.97h37.11c7.17,0,12.96,5.79,12.96,12.96c0,7.16-5.79,12.95-12.96,12.95h-58.71
					c-14.31,0-25.92-11.62-25.92-25.92v-87.9c0-14.32,11.61-25.94,25.92-25.94h55.55c7.15,0,12.95,5.81,12.95,12.97
					c0,7.16-5.8,12.95-12.95,12.95h-33.94c-7.15,0-12.95,5.8-12.95,12.97v3.09c0,7.17,5.8,12.96,12.95,12.96h30.62
					C512.74,399.22,518.48,404.98,518.48,412.08z"/>
			</g>
		</g>
		<g>
			<g>
				<path class="st1" d="M518.48,412.08c0,7.11-5.75,12.87-12.86,12.87h-30.62c-7.15,0-12.95,5.78-12.95,12.96v7.24
					c0,7.16,5.8,12.97,12.95,12.97h37.11c7.17,0,12.96,5.79,12.96,12.96c0,7.16-5.79,12.95-12.96,12.95h-58.71
					c-14.31,0-25.92-11.62-25.92-25.92v-87.9c0-14.32,11.61-25.94,25.92-25.94h55.55c7.15,0,12.95,5.81,12.95,12.97
					c0,7.16-5.8,12.95-12.95,12.95h-33.94c-7.15,0-12.95,5.8-12.95,12.97v3.09c0,7.17,5.8,12.96,12.95,12.96h30.62
					C512.74,399.22,518.48,404.98,518.48,412.08z"/>
			</g>
		</g>
	</g>
	<g>
		<g>
			<g>
				<path class="st0" d="M594.1,484.03c-11.16,0-20.97-7.58-23.76-18.38L543.4,362.22c-2.38-9.09,4.45-17.95,13.85-17.95
					c10.75,0,20.08,7.64,22.2,18.17l7.95,39.27c3.2,15.74,6.19,32.59,8.62,46.25c0.19,1.04-0.35,2.69,0.71,2.69
					c0.56,0,0.36-0.86,0.47-1.42c2.48-14.76,6.03-31.05,9.76-47.93l8.87-39.05c2.39-10.49,11.76-17.97,22.54-17.97
					c10.71,0,19.99,7.55,22.17,18.05l8.54,40.85c3.32,15.86,5.76,30.37,7.98,45.41c0.08,0.57-0.14,1.46,0.43,1.46
					c0.6,0,0.36-0.89,0.44-1.46c2.29-15.13,5.59-31,8.65-47.29l8.76-39.8c2.18-10.04,11.15-17.22,21.4-17.22
					c8.86,0,15.25,8.44,12.82,16.97l-29.66,104.74c-3.01,10.66-12.81,18.05-23.88,18.05c-10.94,0-20.43-7.66-22.72-18.34
					l-9.03-41.79c-2.88-13.64-5.3-26.33-7.1-41.64c-0.07-0.6,0.17-1.48-0.41-1.48c-0.58,0-0.38,0.89-0.48,1.47
					c-2.64,15.12-5.1,28.01-8.62,41.65l-10.09,41.67C614.94,476.39,605.24,484.03,594.1,484.03z"/>
			</g>
		</g>
		<g>
			<g>
				<path class="st1" d="M594.1,484.03c-11.16,0-20.97-7.58-23.76-18.38L543.4,362.22c-2.38-9.09,4.45-17.95,13.85-17.95
					c10.75,0,20.08,7.64,22.2,18.17l7.95,39.27c3.2,15.74,6.19,32.59,8.62,46.25c0.19,1.04-0.35,2.69,0.71,2.69
					c0.56,0,0.36-0.86,0.47-1.42c2.48-14.76,6.03-31.05,9.76-47.93l8.87-39.05c2.39-10.49,11.76-17.97,22.54-17.97
					c10.71,0,19.99,7.55,22.17,18.05l8.54,40.85c3.32,15.86,5.76,30.37,7.98,45.41c0.08,0.57-0.14,1.46,0.43,1.46
					c0.6,0,0.36-0.89,0.44-1.46c2.29-15.13,5.59-31,8.65-47.29l8.76-39.8c2.18-10.04,11.15-17.22,21.4-17.22
					c8.86,0,15.25,8.44,12.82,16.97l-29.66,104.74c-3.01,10.66-12.81,18.05-23.88,18.05c-10.94,0-20.43-7.66-22.72-18.34
					l-9.03-41.79c-2.88-13.64-5.3-26.33-7.1-41.64c-0.07-0.6,0.17-1.48-0.41-1.48c-0.58,0-0.38,0.89-0.48,1.47
					c-2.64,15.12-5.1,28.01-8.62,41.65l-10.09,41.67C614.94,476.39,605.24,484.03,594.1,484.03z"/>
			</g>
		</g>
	</g>
	<g>
		<g>
			<g>
				<path class="st0" d="M748.08,464.45c1.87-6.77,9.11-10.31,15.81-8.3c7.79,2.34,16.94,4.05,26.19,4.05
					c15.93,0,24.35-6.03,24.35-15.14c0-8.71-7.3-13.68-25.71-19.5c-25.5-8.29-42.32-21.15-42.32-41.48
					c0-23.83,22.05-41.87,58.02-41.87c10.94,0,19.93,1.2,27.36,3.08c7.04,1.77,10.02,9.68,7.89,16.6
					c-2.08,6.83-9.55,10.03-16.46,8.33c-5.37-1.32-11.86-2.3-19.24-2.3c-15.03,0-22.3,6.43-22.3,13.48c0,8.92,8.42,12.86,28.44,19.7
					c27.06,9.13,39.56,21.99,39.56,41.67c0,23.45-19.55,43.34-61.63,43.34c-10.95,0-21.84-1.69-30.55-4.03
					C749.95,480.05,746.05,471.98,748.08,464.45z"/>
			</g>
		</g>
		<g>
			<g>
				<path class="st1" d="M748.08,464.45c1.87-6.77,9.11-10.31,15.81-8.3c7.79,2.34,16.94,4.05,26.19,4.05
					c15.93,0,24.35-6.03,24.35-15.14c0-8.71-7.3-13.68-25.71-19.5c-25.5-8.29-42.32-21.15-42.32-41.48
					c0-23.83,22.05-41.87,58.02-41.87c10.94,0,19.93,1.2,27.36,3.08c7.04,1.77,10.02,9.68,7.89,16.6
					c-2.08,6.83-9.55,10.03-16.46,8.33c-5.37-1.32-11.86-2.3-19.24-2.3c-15.03,0-22.3,6.43-22.3,13.48c0,8.92,8.42,12.86,28.44,19.7
					c27.06,9.13,39.56,21.99,39.56,41.67c0,23.45-19.55,43.34-61.63,43.34c-10.95,0-21.84-1.69-30.55-4.03
					C749.95,480.05,746.05,471.98,748.08,464.45z"/>
			</g>
		</g>
	</g>
	<path class="st1" d="M958.05,268.23c0-29.73-22.84-54.19-51.89-56.82c-0.61-21.32-9.17-41.23-24.26-56.31
		c-15.66-15.67-36.51-24.34-58.69-24.34H148.94c-22.19,0-43.02,8.66-58.68,24.31c-15.67,15.66-24.32,36.51-24.32,58.7l0.02,581.5
		c0,37.51,16.08,60.49,29.57,73.15c17.06,15.97,39.61,24.79,63.55,24.79h690.06c60.07,0,108.92-48.87,108.92-108.92L958.05,268.23z
		 M180.13,797.86c-1.97,20.56-12.16,31.03-30.04,31.49c-4.48-1.31-8.69-3.25-11.96-6.31c-6.59-6.19-9.92-15.53-9.92-27.74V213.78
		c0-5.56,2.15-10.75,6.08-14.68c3.9-3.91,9.11-6.07,14.65-6.07H823.2c5.55,0,10.75,2.16,14.68,6.12c3.92,3.88,6.06,9.07,6.06,14.63
		v18.13H239.7c-44.01,0-59.62,25.13-59.62,46.66L180.13,797.86z M849.14,830.98H213.26c4.11-8.72,7.12-18.89,8.27-31.11l0.02-521.29
		c0-2.9,7.98-5.18,18.15-5.18h635.25c0.05,0,0.08,0.02,0.08,0.02h20.77l0.02,510.89C895.82,810.05,874.89,830.98,849.14,830.98z"/>
	<path class="st2" d="M821.57,551.5H406.63c-11.45,0-20.74,9.28-20.74,20.75c0,11.45,9.28,20.73,20.74,20.73h414.94
		c11.45,0,20.74-9.27,20.74-20.73C842.3,560.79,833.02,551.5,821.57,551.5z"/>
	<path class="st2" d="M821.57,623.42h-311.2c-11.45,0-20.74,9.27-20.74,20.74c0,11.45,9.28,20.74,20.74,20.74h311.2
		c11.45,0,20.74-9.28,20.74-20.74C842.3,632.69,833.02,623.42,821.57,623.42z"/>
	<path class="st2" d="M821.57,695.33h-311.2c-11.45,0-20.74,9.27-20.74,20.74c0,11.47,9.28,20.74,20.74,20.74h311.2
		c11.45,0,20.74-9.27,20.74-20.74C842.3,704.6,833.02,695.33,821.57,695.33z"/>
</g>
</svg>
