<?xml version="1.0" encoding="utf-8"?>
<!-- Generator: Adobe Illustrator 25.0.0, SVG Export Plug-In . SVG Version: 6.00 Build 0)  -->
<svg version="1.1" id="图层_1" xmlns="http://www.w3.org/2000/svg" xmlns:xlink="http://www.w3.org/1999/xlink" x="0px" y="0px"
	 viewBox="0 0 1024 1024" style="enable-background:new 0 0 1024 1024;" xml:space="preserve">
<style type="text/css">
	.st0{fill:#1A936F;}
	.st1{fill:#FEC3E4;}
</style>
<g>
	<path class="st0" d="M128.6,256.4h766.8c35.29,0,63.9,28.61,63.9,63.9v511.2c0,35.29-28.61,63.9-63.9,63.9H128.6
		c-35.29,0-63.9-28.61-63.9-63.9V320.3C64.7,285.01,93.31,256.4,128.6,256.4z M128.6,299c-11.76,0-21.3,9.54-21.3,21.3v511.2
		c0,11.76,9.54,21.3,21.3,21.3h766.8c11.76,0,21.3-9.54,21.3-21.3V320.3c0-11.76-9.54-21.3-21.3-21.3H128.6z"/>
	<path class="st0" d="M128.6,256.4h766.8c35.29,0,63.9,28.61,63.9,63.9V512c0,35.29-28.61,63.9-63.9,63.9H128.6
		c-35.29,0-63.9-28.61-63.9-63.9V320.3C64.7,285.01,93.31,256.4,128.6,256.4z M128.6,299c-11.76,0-21.3,9.54-21.3,21.3V512
		c0,11.76,9.54,21.3,21.3,21.3h766.8c11.76,0,21.3-9.54,21.3-21.3V320.3c0-11.76-9.54-21.3-21.3-21.3H128.6z"/>
	<path id="Shape_4_" class="st0" d="M235.1,490.7c0-11.76,9.54-21.3,21.3-21.3h85.2c11.76,0,21.3,9.54,21.3,21.3v127.8
		c0,11.76-9.54,21.3-21.3,21.3h-85.2c-11.76,0-21.3-9.54-21.3-21.3V490.7z"/>
	<polygon id="Shape_3_" class="st1" points="277.7,512 277.7,597.2 320.3,597.2 320.3,512 	"/>
	<path id="Shape_2_" class="st0" d="M661.1,490.7c0-11.76,9.54-21.3,21.3-21.3h85.2c11.76,0,21.3,9.54,21.3,21.3v127.8
		c0,11.76-9.54,21.3-21.3,21.3h-85.2c-11.76,0-21.3-9.54-21.3-21.3V490.7z"/>
	<path id="Shape_1_" class="st0" d="M320.3,299h383.4v-85.2c0-47.05-38.15-85.2-85.2-85.2h-213c-47.05,0-85.2,38.15-85.2,85.2V299z
		 M362.9,256.4v-42.6c0-23.53,19.07-42.6,42.6-42.6h213c23.53,0,42.6,19.07,42.6,42.6v42.6H362.9z"/>
	<polygon id="Shape_91_" class="st1" points="703.7,512 703.7,597.2 746.3,597.2 746.3,512 	"/>
</g>
</svg>
