<?xml version="1.0" encoding="utf-8"?>
<!-- Generator: Adobe Illustrator 25.0.0, SVG Export Plug-In . SVG Version: 6.00 Build 0)  -->
<svg version="1.1" id="图层_1" xmlns="http://www.w3.org/2000/svg" xmlns:xlink="http://www.w3.org/1999/xlink" x="0px" y="0px"
	 viewBox="0 0 1024 1024" style="enable-background:new 0 0 1024 1024;" xml:space="preserve">
<style type="text/css">
	.st0{fill-rule:evenodd;clip-rule:evenodd;fill:#1A936F;}
	.st1{fill:#FEC3E4;}
	.st2{fill:#1A936F;}
</style>
<g>
	<path class="st0" d="M926.69,146.24H97.31c-18.04,0-32.64,14.61-32.64,32.63v639.04c0,18.03,14.6,32.64,32.64,32.64h50.02
		c2.68,15.31,15.45,27.2,31.54,27.2h122.38c16.09,0,28.86-11.89,31.55-27.2h358.4c2.69,15.31,15.45,27.2,31.55,27.2h122.36
		c16.1,0,28.88-11.89,31.55-27.2h50.02c18.04,0,32.64-14.61,32.64-32.64V178.87C959.33,160.86,944.73,146.24,926.69,146.24z
		 M894.06,785.28H129.94V211.52h764.12V785.28z"/>
	<rect x="768.97" y="361.08" class="st1" width="43.52" height="43.5"/>
	<rect x="687.41" y="361.08" class="st1" width="43.49" height="43.5"/>
	<rect x="605.82" y="361.08" class="st1" width="43.5" height="43.5"/>
	<rect x="768.97" y="442.65" class="st1" width="43.52" height="43.5"/>
	<rect x="687.41" y="442.65" class="st1" width="43.49" height="43.5"/>
	<rect x="605.82" y="442.65" class="st1" width="43.5" height="43.5"/>
	<rect x="768.97" y="524.24" class="st1" width="43.52" height="43.49"/>
	<rect x="676.51" y="605.82" class="st1" width="135.98" height="43.5"/>
	<rect x="687.41" y="524.24" class="st1" width="43.49" height="43.49"/>
	<rect x="605.82" y="524.24" class="st1" width="43.5" height="43.49"/>
	<path class="st2" d="M494.97,586.59c3.87-5.12,7.56-10.45,10.85-16.14c43.46-75.31,17.58-171.95-57.72-215.42
		c-75.31-43.47-171.97-17.58-215.44,57.73c-43.48,75.31-17.59,171.97,57.7,215.43c56.45,32.59,124.9,26.2,173.95-10.75l6.07,6.08
		c8.47,8.5,22.26,8.5,30.75,0.03c8.5-8.5,8.5-22.27,0-30.78L494.97,586.59z M468.15,548.7c-1.36,2.33-3.17,4.22-4.64,6.42l-1.2-1.2
		c-8.47-8.5-22.25-8.5-30.74-0.03c-8.51,8.51-8.51,22.28,0,30.78l1.24,1.25c-35.06,23.53-81.71,27.06-120.67,4.57
		c-54.54-31.48-73.28-101.46-41.83-155.98c31.53-54.53,101.51-73.28,156.02-41.8c36.6,21.12,57.1,59.59,57.1,99.09
		C483.43,511.17,478.48,530.76,468.15,548.7z"/>
	<path class="st2" d="M407.32,425.66c-36.36-20.98-83.04-8.5-104.02,27.85c-20.98,36.36-8.5,83.01,27.85,104.02
		c36.35,20.98,83.04,8.5,104.02-27.85c0,0,0-0.03,0.02-0.03C456.15,493.31,443.64,446.67,407.32,425.66z M397.49,507.93
		c-9.01,15.57-28.99,20.92-44.59,11.92c-15.55-8.98-20.92-28.99-11.91-44.58c8.97-15.56,28.99-20.92,44.58-11.92
		c10.45,6.03,16.32,17.03,16.32,28.33C401.88,497.19,400.47,502.79,397.49,507.93z"/>
</g>
</svg>
